<svg xmlns="http://www.w3.org/2000/svg" width="24" height="24" fill="none" stroke-width="1.5" color="#000" viewBox="0 0 24 24"><g stroke="#000" stroke-linecap="round" stroke-linejoin="round" clip-path="url(#a)" style="stroke:#fff;stroke-opacity:1"><path d="M12 10a1.5 1.5 0 1 0 0-3 1.5 1.5 0 0 0 0 3M12 18a1.5 1.5 0 1 0 0-3 1.5 1.5 0 0 0 0 3M16.25 14.25a1.5 1.5 0 1 0 0-3 1.5 1.5 0 0 0 0 3M12 10v5M8.25 4.75 10.5 7M13.25 9.75l1.5 1.5" style="stroke:#fff;stroke-opacity:1"/><path d="M11.576 1.424a.6.6 0 0 1 .848 0l10.152 10.152a.6.6 0 0 1 0 .848L12.424 22.576a.6.6 0 0 1-.848 0L1.424 12.424a.6.6 0 0 1 0-.848z" style="stroke:#fff;stroke-opacity:1"/></g><defs><clipPath id="a"><path fill="#fff" d="M0 0h24v24H0z"/></clipPath></defs></svg>